:SAMPLES-PER-SECOND 30
:FULLY-SPECIFIED
:DEGREES
16
root  40.5183 40.4448 -2.48734 -129.82 -86.1796 129.18
RightUpLeg  -0.942961 -10.7224 -7.07538
RightLeg  8.42061 -6.74352 3.40537
RightFoot  -8.73964 -0.157512 4.35917
RightToes  0.000482159 0.542163 -0.142577
Spine  7.12871 1.28995 -1.33077
Spine1  1.2513 1.32857 0.0728293
HEad  -6.3098 0.811314 -0.189138
LeftShoulder1  1.07637 -2.51313 -10.5648
LeftArm  -23.2937 12.5159 -9.54709
LeftForeArm  17.4059 -5.25041 0.439009
LeftHand  -0.25398 0.0180481 5.50724
RightShoulder  0.43142 -0.771337 8.32428
RightArm  -29.0442 -5.60386 6.65007
RightForeArm  -1.8318 4.83548 0.876387
RightHand  -1.59593 4.22287 -19.4298
LeftUpLeg  -3.1281 5.18412 1.06563
LeftLeg  6.16251 17.109 -2.3865
LeftFoot  -4.0594 0.0758181 -0.779883
LeftToes  1.06244e-005 4.65856e-005 -8.18505e-006
17
root  40.3857 40.4288 -2.30094 -129.659 -86.08 128.853
RightUpLeg  -0.211348 -10.9829 -7.77223
RightLeg  8.10565 -6.03682 3.50725
RightFoot  -9.94373 -0.152007 6.83279
RightToes  0.000482159 0.542163 -0.142577
Spine  6.99394 1.19884 -1.1886
Spine1  1.85498 1.29938 -0.243204
HEad  -6.28343 1.0987 -0.524612
LeftShoulder1  1.16344 -2.70542 -11.5021
LeftArm  -24.595 14.1021 -10.6811
LeftForeArm  20.3855 -8.53983 0.465552
LeftHand  -0.25398 0.0180481 5.50724
RightShoulder  0.484716 -0.537902 8.93855
RightArm  -29.2225 -6.56371 7.94407
RightForeArm  -3.11635 7.51529 1.4769
RightHand  -1.90787 5.24303 -20.9819
LeftUpLeg  -2.99226 5.05955 0.578203
LeftLeg  6.83718 17.3753 -1.99687
LeftFoot  -5.36397 0.0859808 -0.882887
LeftToes  1.06244e-005 4.65856e-005 -8.18505e-006
18
root  40.2004 40.4206 -2.10057 -129.596 -86.0723 128.746
RightUpLeg  0.497134 -11.1447 -8.41792
RightLeg  7.66012 -5.67638 3.71881
RightFoot  -10.5798 -0.129103 8.45831
RightToes  0.000482159 0.542163 -0.142577
Spine  6.61614 1.08537 -0.896403
Spine1  2.46041 1.28662 -0.678205
HEad  -5.7839 1.28938 -0.603111
LeftShoulder1  1.31795 -3.02849 -13.0901
LeftArm  -26.0404 15.8423 -11.6913
LeftForeArm  23.4765 -12.4168 0.0877307
LeftHand  -0.25398 0.0180481 5.50724
RightShoulder  0.604587 -0.0399189 10.1725
RightArm  -29.388 -8.32421 9.51948
RightForeArm  -3.35689 11.4779 2.34731
RightHand  -2.13938 5.97743 -21.9851
LeftUpLeg  -2.79915 5.06952 0.2117
LeftLeg  7.26773 17.5259 -1.82233
LeftFoot  -6.49791 0.0725572 -0.656752
LeftToes  1.06244e-005 4.65856e-005 -8.18505e-006
19
root  39.9708 40.4101 -1.88802 -131.955 -85.9927 131.137
RightUpLeg  1.00803 -11.2552 -8.89319
RightLeg  7.35149 -5.2837 3.83987
RightFoot  -10.8387 -0.113866 9.09778
RightToes  0.000482159 0.542163 -0.142577
Spine  6.14512 1.07978 -0.513375
Spine1  2.98612 1.40828 -1.19634
HEad  -5.0174 1.36467 -0.465649
LeftShoulder1  1.51623 -3.40918 -15.0211
LeftArm  -28.0718 17.7197 -12.8822
LeftForeArm  27.1101 -16.4569 -0.943024
LeftHand  -0.25398 0.0180481 5.50724
RightShoulder  0.786477 0.622635 11.9628
RightArm  -29.3695 -10.6255 11.2822
RightForeArm  -2.72793 16.216 3.49043
RightHand  -2.21544 6.12601 -22.4529
LeftUpLeg  -2.54438 5.28327 -0.00364013
LeftLeg  7.60226 17.6471 -1.80916
LeftFoot  -7.37968 0.063175 -0.558415
LeftToes  1.06244e-005 4.65856e-005 -8.18505e-006
20
root  39.7023 40.3866 -1.65589 -136.242 -85.8305 135.35
RightUpLeg  1.49558 -11.354 -9.27591
RightLeg  7.25706 -4.61484 3.80464
RightFoot  -10.9983 -0.103557 9.5499
RightToes  0.000482159 0.542163 -0.142577
Spine  5.74616 1.17875 -0.217482
Spine1  3.58953 1.59383 -1.52219
HEad  -4.29285 1.39492 -0.412072
LeftShoulder1  1.73024 -3.75995 -17.0786
LeftArm  -30.1798 19.7198 -14.7493
LeftForeArm  31.1634 -20.2899 -2.26345
LeftHand  -0.25398 0.0180481 5.50724
RightShoulder  1.00804 1.30788 14.056
RightArm  -28.6974 -13.0084 13.2901
RightForeArm  -1.48235 21.0623 4.58897
RightHand  -2.1482 5.7858 -22.424
LeftUpLeg  -2.15272 5.53309 -0.168232
LeftLeg  8.05371 17.676 -1.73501
LeftFoot  -8.14381 0.0764016 -0.994259
LeftToes  1.06244e-005 4.65856e-005 -8.18505e-006
21
root  39.4008 40.3491 -1.39714 -139.58 -85.7742 138.407
RightUpLeg  2.0669 -11.6232 -9.68438
RightLeg  7.56178 -3.99321 3.62503
RightFoot  -10.9882 -0.105683 9.99339
RightToes  0.000482159 0.542163 -0.142577
Spine  5.5244 1.23256 -0.0785016
Spine1  4.34549 1.65893 -1.51224
HEad  -3.69216 1.36777 -0.420348
LeftShoulder1  1.94879 -4.03427 -19.2712
LeftArm  -31.4307 21.5504 -17.4069
LeftForeArm  34.6342 -23.3922 -3.18281
LeftHand  -0.25398 0.0180481 5.50724
RightShoulder  1.25216 1.92027 16.397
RightArm  -27.6352 -15.1164 15.4822
RightForeArm  1.16162 25.3968 5.38462
RightHand  -1.96587 5.11774 -21.8309
LeftUpLeg  -1.58421 5.71158 -0.410311
LeftLeg  8.59667 17.3728 -1.49325
LeftFoot  -8.79249 0.0871991 -1.54031
LeftToes  1.06244e-005 4.65856e-005 -8.18505e-006
22
root  39.0811 40.2909 -1.1175 -140.933 -85.9221 139.331
RightUpLeg  2.43435 -12.4792 -10.0654
RightLeg  8.72425 -3.32406 3.18503
RightFoot  -10.8547 -0.114453 9.53559
RightToes  0.000482159 0.542163 -0.142577
Spine  5.548 1.18934 -0.103514
Spine1  5.08773 1.55474 -1.22704
HEad  -3.13582 1.30885 -0.390119
LeftShoulder1  2.19258 -4.31433 -21.6084
LeftArm  -31.185 22.9132 -20.5467
LeftForeArm  36.3433 -25.0981 -3.47502
LeftHand  -0.25398 0.0180481 5.50724
RightShoulder  1.51356 2.44354 18.9611
RightArm  -26.2482 -16.8467 17.6806
RightForeArm  4.89106 28.6626 5.94555
RightHand  -1.75446 4.34587 -21.0445
LeftUpLeg  -0.933732 5.96036 -0.717923
LeftLeg  9.22235 16.6923 -1.17976
LeftFoot  -9.32126 0.0820531 -1.46621
LeftToes  1.06244e-005 4.65856e-005 -8.18505e-006
23
root  38.7674 40.1865 -0.833844 -141.827 -86.0281 139.703
RightUpLeg  2.10422 -14.3991 -10.2694
RightLeg  11.26 -1.46712 2.16493
RightFoot  -11.0227 -0.0982852 8.1799
RightToes  0.000482159 0.542163 -0.142577
Spine  5.92145 1.196 -0.411965
Spine1  5.64579 1.42436 -0.772839
HEad  -2.69645 1.24005 -0.48392
LeftShoulder1  2.4967 -4.74416 -23.96
LeftArm  -29.4692 23.8254 -23.8957
LeftForeArm  36.1248 -25.0285 -3.46741
LeftHand  -0.25398 0.0180481 5.50724
RightShoulder  1.7987 2.96344 21.4926
RightArm  -23.7859 -18.329 19.8231
RightForeArm  7.95782 30.6575 6.26354
RightHand  -1.58805 3.69725 -20.4126
LeftUpLeg  -0.337935 6.51584 -0.990221
LeftLeg  10.2035 15.8736 -0.932064
LeftFoot  -10.0716 0.0705687 -0.881907
LeftToes  1.06244e-005 4.65856e-005 -8.18505e-006
24
root  38.4803 40.0174 -0.559464 -143.848 -85.7328 141.082
RightUpLeg  0.598954 -15.7061 -10.2711
RightLeg  15.7389 0.38372 0.51892
RightFoot  -11.4261 -0.0711023 7.57887
RightToes  0.000482159 0.542163 -0.142577
Spine  6.75362 1.37147 -1.10835
Spine1  6.07523 1.39768 -0.329934
HEad  -2.55592 1.20143 -0.88571
LeftShoulder1  2.85423 -5.31849 -26.1434
LeftArm  -26.5093 24.3986 -27.5047
LeftForeArm  34.67 -23.4674 -3.20873
LeftHand  -0.25398 0.0180481 5.50724
RightShoulder  2.12813 3.60259 23.7539
RightArm  -20.349 -19.6843 22.0647
RightForeArm  10.5553 31.6688 6.37051
RightHand  -1.37269 2.93468 -19.2429
LeftUpLeg  0.18111 7.46436 -1.25541
LeftLeg  11.7546 15.1381 -0.761785
LeftFoot  -11.4231 0.0675619 -0.576377
LeftToes  1.06244e-005 4.65856e-005 -8.18505e-006
25
root  38.2152 39.8142 -0.296071 -146.798 -84.9679 143.275
RightUpLeg  -2.29108 -12.6703 -10.3314
RightLeg  22.6145 -2.1638 -1.32299
RightFoot  -10.8288 -0.115118 8.52216
RightToes  0.000482159 0.542163 -0.142577
Spine  7.95702 1.61725 -2.00012
Spine1  6.59547 1.44329 -0.13139
HEad  -2.84591 1.34168 -1.34095
LeftShoulder1  3.21044 -5.87396 -28.0946
LeftArm  -23.2424 24.5873 -31.3683
LeftForeArm  33.728 -21.0079 -2.7768
LeftHand  -0.25398 0.0180481 5.50724
RightShoulder  2.49901 4.34477 25.7437
RightArm  -17.0103 -20.7557 24.7487
RightForeArm  14.2297 32.0379 6.25257
RightHand  -1.03612 1.73738 -16.9554
LeftUpLeg  0.735381 8.61183 -1.66126
LeftLeg  13.5541 14.6458 -0.523706
LeftFoot  -13.1403 0.0671319 -0.737689
LeftToes  1.06244e-005 4.65856e-005 -8.18505e-006
